# xmcd
# Track frame offsets:
# 183
# 13383
# 24058
# 36995
# 49820
# 62683
# 77208
# 91413
# 101028
# 112353
# 125458
#
# Disc length: 1844 seconds
# Revision: 0
# Processed by: cddbd v1.5.2PL0 Copyright (c) Steve Scherf et al.
# Submitted via: VisiTrax 2.11.1.266 - For more info visit www.synapsa.com
#
DISCID=9407320b
DTITLE=Johnny Cash - Rock Of Ages Disc 2
DYEAR=1900
DGENRE=Gospel
TTITLE0=Precious Memories
TTITLE1=Rock Of Ages
TTITLE2=The Old Rugged Cross
TTITLE3=Softly And Tenderly
TTITLE4=In The Sweet By And By
TTITLE5=Just As I Am
TTITLE6=Farther Along
TTITLE7=When The Roll Is Called Up Yonder
TTITLE8=Amazing Grace
TTITLE9=At The Cross
TTITLE10=Have Thine Own Way Lord
EXTD=
EXTT0=
EXTT1=
EXTT2=
EXTT3=
EXTT4=
EXTT5=
EXTT6=
EXTT7=
EXTT8=
EXTT9=
EXTT10=
PLAYORDER=
